PathFileType	4	(X/Y/Z)	E:/New_biomech_experiments/27_06_2024_Shreyas_Arm26_updated ground/Afternoon session/Neeraj_PP_27_6_24_elbow_flexion_t01.trc	
DataRate	CameraRate	NumFrames	NumMarkers	Units	OrigDataRate	OrigDataStartFrame	OrigNumFrames	
120.00	120.00	36	4	m	120.00	1632	6524	
Frame#	Time	MarkerSet_r_acromion			MarkerSet_r_humerus_epicondyle			MarkerSet_r_radius_styloid			MarkerSet_RHAND			
		X1	Y1	Z1	X2	Y2	Z2	X3	Y3	Z3	X4	Y4	Z4	

1632	13.592	0.00384	0.78421	0.22728	-0.01603	0.44147	0.25238	0.25336	0.45509	0.24334	0.33893	0.47822	0.19780 
1633	13.600	0.00379	0.78420	0.22729	-0.01608	0.44145	0.25237	0.25331	0.45504	0.24334	0.33889	0.47815	0.19779 
1634	13.608	0.00374	0.78419	0.22730	-0.01613	0.44143	0.25237	0.25326	0.45499	0.24334	0.33885	0.47809	0.19779 
1635	13.617	0.00370	0.78418	0.22731	-0.01618	0.44141	0.25237	0.25321	0.45494	0.24334	0.33881	0.47801	0.19779 
1636	13.625	0.00366	0.78416	0.22732	-0.01623	0.44139	0.25237	0.25316	0.45488	0.24335	0.33876	0.47793	0.19778 
1637	13.633	0.00362	0.78414	0.22733	-0.01628	0.44137	0.25237	0.25311	0.45481	0.24335	0.33872	0.47784	0.19778 
1638	13.642	0.00358	0.78413	0.22733	-0.01633	0.44135	0.25237	0.25306	0.45474	0.24335	0.33866	0.47774	0.19777 
1639	13.650	0.00353	0.78412	0.22734	-0.01638	0.44133	0.25236	0.25300	0.45466	0.24336	0.33861	0.47764	0.19777 
1640	13.658	0.00349	0.78410	0.22734	-0.01644	0.44131	0.25236	0.25293	0.45458	0.24336	0.33856	0.47754	0.19777 
1641	13.667	0.00345	0.78409	0.22735	-0.01651	0.44129	0.25236	0.25287	0.45450	0.24337	0.33850	0.47743	0.19778 
1642	13.675	0.00341	0.78407	0.22736	-0.01658	0.44127	0.25235	0.25280	0.45441	0.24338	0.33844	0.47732	0.19779 
1643	13.683	0.00338	0.78405	0.22736	-0.01665	0.44125	0.25235	0.25272	0.45433	0.24339	0.33838	0.47722	0.19781 
1644	13.692	0.00335	0.78403	0.22737	-0.01673	0.44124	0.25234	0.25264	0.45425	0.24339	0.33831	0.47711	0.19782 
1645	13.700	0.00333	0.78401	0.22738	-0.01681	0.44122	0.25234	0.25256	0.45417	0.24340	0.33824	0.47701	0.19783 
1646	13.708	0.00330	0.78400	0.22738	-0.01689	0.44122	0.25234	0.25248	0.45410	0.24341	0.33817	0.47691	0.19784 
1647	13.717	0.00328	0.78399	0.22739	-0.01698	0.44121	0.25234	0.25239	0.45403	0.24342	0.33809	0.47681	0.19785 
1648	13.725	0.00326	0.78398	0.22740	-0.01707	0.44121	0.25235	0.25231	0.45396	0.24343	0.33801	0.47671	0.19786 
1649	13.733	0.00323	0.78398	0.22741	-0.01717	0.44120	0.25236	0.25222	0.45390	0.24343	0.33793	0.47663	0.19787 
1650	13.742	0.00320	0.78397	0.22742	-0.01726	0.44120	0.25237	0.25213	0.45384	0.24344	0.33784	0.47654	0.19788 
1651	13.750	0.00317	0.78396	0.22743	-0.01736	0.44121	0.25239	0.25204	0.45378	0.24345	0.33776	0.47646	0.19788 
1652	13.758	0.00313	0.78396	0.22745	-0.01746	0.44121	0.25240	0.25195	0.45372	0.24346	0.33767	0.47639	0.19789 
1653	13.767	0.00309	0.78395	0.22746	-0.01756	0.44121	0.25242	0.25186	0.45366	0.24347	0.33759	0.47632	0.19790 
1654	13.775	0.00305	0.78394	0.22748	-0.01766	0.44120	0.25244	0.25177	0.45361	0.24349	0.33750	0.47625	0.19791 
1655	13.783	0.00300	0.78392	0.22749	-0.01776	0.44120	0.25246	0.25168	0.45356	0.24351	0.33742	0.47618	0.19794 
1656	13.792	0.00295	0.78391	0.22750	-0.01786	0.44119	0.25248	0.25159	0.45351	0.24353	0.33734	0.47612	0.19796 
1657	13.800	0.00290	0.78389	0.22752	-0.01796	0.44118	0.25249	0.25151	0.45346	0.24356	0.33726	0.47606	0.19800 
1658	13.808	0.00285	0.78387	0.22753	-0.01806	0.44117	0.25250	0.25142	0.45341	0.24359	0.33718	0.47600	0.19804 
1659	13.817	0.00279	0.78386	0.22755	-0.01816	0.44116	0.25251	0.25133	0.45336	0.24363	0.33710	0.47594	0.19808 
1660	13.825	0.00274	0.78384	0.22756	-0.01825	0.44114	0.25252	0.25124	0.45331	0.24367	0.33702	0.47589	0.19813 
1661	13.833	0.00268	0.78382	0.22758	-0.01835	0.44113	0.25252	0.25115	0.45327	0.24371	0.33694	0.47584	0.19818 
1662	13.842	0.00262	0.78380	0.22760	-0.01845	0.44111	0.25252	0.25106	0.45323	0.24374	0.33686	0.47579	0.19824 
1663	13.850	0.00257	0.78379	0.22761	-0.01854	0.44110	0.25252	0.25096	0.45319	0.24378	0.33678	0.47574	0.19829 
1664	13.858	0.00250	0.78377	0.22763	-0.01864	0.44109	0.25252	0.25087	0.45315	0.24382	0.33669	0.47569	0.19835 
1665	13.867	0.00244	0.78375	0.22764	-0.01874	0.44107	0.25251	0.25077	0.45312	0.24386	0.33660	0.47565	0.19840 
1666	13.875	0.00238	0.78374	0.22766	-0.01884	0.44106	0.25251	0.25067	0.45308	0.24390	0.33651	0.47561	0.19846 
1667	13.883	0.00231	0.78372	0.22767	-0.01894	0.44104	0.25251	0.25057	0.45305	0.24393	0.33642	0.47557	0.19851 
